<svg xmlns="http://www.w3.org/2000/svg" width="199.532" height="256pt" style="isolation:isolate" viewBox="0 0 149.649 256">
  <path fill="#FFF" d="M2.045 103.052v82.308l5.678 28.479 12.386 17.19 20.767 13.238 31.967 9.777 26.446-7.263 24.483-13.812 12.863-14.972 6.673-22.088 1.801-25.673v-67.818l-143.064.634Z"/>
  <path fill="#ED1B2E" d="M62.261 102.947v54.99H1.977v19.83h60.219v73.238l10.656 3.141 11.853-2.904V178.36h59.681v-20.115H84.445v-55.292l-22.184-.006Z"/>
  <path fill="#FFF" d="m7.557 37.044-2.315 4.317 1.502 5.193 3.379 2.44 3.754.689 4.067-2.003 7.946 1.189 8.384-4.317 2.002-8.697 6.198.513 8.009-4.943 9.26-.25 7.47-5.337 8.009 4.067 7.133-.376 5.631-2.94 2.284 5.944 6.682 3.444 7.696.125 1.689 5.193 6.132 4.192 6.194 1.627 6.57-1.814 6.748 2.152 5.569-.5 4.129-3.129 1.439-5.381-1.564-4.567-5.631-2.878-2.315-.376-2.002-4.818-4.142-2.997-8.572-.187-3.004.688-2.753-5.882-5.165-2.064-7.883 1.251-8.278-9.42L80.03 5.566l-6.478 2.249-11.169-3.269L53.905 8.3l-4.13 7.195-11.331-1.964-7.883 4.505-2.128 6.444-6.82 2.312L17.9 32.83l-8.76 2.628-1.583 1.586ZM93.246 76.961l4.664-1.783 7.544-1.098 8.299 1.304 4.664 5.829 3.292 6.105-2.469 2.469-6.173-.343-3.498-.686-4.732.411-6.379-.754-.96-3.841-4.252-7.613ZM45.551 76.639l7.133-1.921 9.945-.274 6.927 3.361 4.184 6.858 1.097 3.43-5.624 2.057-6.515-2.195-4.733 1.784-6.584-1.784-3.498-7.956-2.332-3.36ZM10.397 73.696l-5.83 2.469-2.194 4.047.343 4.733 2.88 3.635 5.213 1.577 5.349-2.812 4.664 2.332 6.653-.823 1.098-1.989-5.144-8.093-3.91-3.635-9.122-1.441Z"/>
  <path fill="#ED1B2E" d="m118.748 75.713-1.814 1.251 5.63 11.071 8.381 1.814 9.945-1.501 2.752-2.69.187-3.69-1.689-2.377-4.002-3.315-7.506-1.814-7.193-.125-4.691 1.376ZM22.632 76.363l2.189 5.274 4.578 6.369 7.861 1.691 9.952-.398 4.279-1.99-2.687-5.573-4.976-5.871-10.051-1.891-6.568.398-4.577 1.991ZM69.952 77.209l2.17 4.929 4.539 5.952 7.795 1.581 9.867-.372 4.243-1.86-2.664-5.208-4.933-5.487-9.966-1.767-6.513.372-4.538 1.86Z"/>
  <path fill="#F5C142" d="m4.741 59.368 5.374-1.178 10.746-.589 10.431 1.178 10.431-.207 8.455 1.18-3.714-2.932-7.755-4.666-5.87-6.336 2.548-4.8 4.268 2.133 8.475 3.912 8.593 5.037 1.304-2.074-4.682-7.704-3.675-9.246 2.371-.83 4.267.712 7.468 10.075 2.388 3.819 2.193-.414.939-18.678 6.045 2.074 2.134 10.49-.415 6.401 3.328-1.944 5.215-10.846 3.319-2.192 5.038 4.148-1.956 4.445-4.208 10.135 2.8.077 15.187-9.779 4.777 4.468-6.223 4.03-7.823 9.187 7.882-1.363 17.128.533 16.399-1.322 8.771 1.541-19.38 6.342L103.875 67l-5.61 1.641-.154 6.389-6.22 2.543-5.156-2.252-7.052-.83-9.068 2.252-1.858.43-7.823-2.786-4.267.178-7.779 1.405-.474-7.172-12.238-2.921-10.179-1.126-12.256-2.478-9-2.905Z"/>
  <path fill="#231F20" fill-rule="evenodd" d="M148.796 56.82c-.781-.59-9.924-1.752-11.278-1.752-1.354 0-9.144 0-12.249.59-4.668.78-12.839.78-18.861 0-2.135-.191-4.667.191-6.61.971.381-.382.78-.78 1.354-1.162 1.752-1.945 3.886-5.448 7.391-7.201.971-.383 1.751-.972 2.532-1.354 2.915 1.562 7.774 2.533 13.62-.191 8.745 4.476 14.002 1.37 15.946-.192 2.325-1.943 3.503-4.666 3.503-7.582 0-.971-.191-1.943-.382-2.914-1.354-3.887-4.668-6.228-9.525-6.802-.191-.973-.782-1.944-1.163-2.916.589-.78 1.163-1.369 1.37-1.752.382-.59 1.943-2.915-1.944-.971-.191.191-.59.381-.971.589-.59-.589-1.164-.971-1.753-1.354-3.695-2.134-8.554-2.533-13.428-1.163-.78-2.724-1.944-4.858-4.078-6.229-2.135-1.354-5.066-1.752-8.363-1.161.191-.384.383-.973.589-1.164 1.37-3.106.59-3.886-.78-2.532-1.753 1.56-2.724 2.723-3.696 3.503-3.106-5.065-7.2-8.362-12.058-9.525-4.285-1.163-8.745-.589-12.839 1.37-.191-2.135-.589-3.695-.78-4.668-.782-2.532-1.753-.589-1.753.191-.192.973-.383 2.534-.59 4.079-4.078-2.135-8.553-2.725-12.838-1.561-4.668 1.354-8.173 4.858-10.307 9.716-1.752-.589-3.312-.971-4.667-1.162-.781-1.163-2.135-2.534-3.887-4.079-1.162-.971-2.135-.589-1.561 1.562.191.78.59 1.561.781 2.134-3.313.191-5.83 1.354-7.392 2.532-3.312 2.534-4.476 6.023-4.857 8.364-.193 0-.383.191-.383.191-2.724.589-6.419 1.561-8.555 5.257-.382-.191-.78-.383-.78-.589-6.802-4.477-3.696 1.369-.971 3.886-9.144 1.355-11.676 5.639-12.25 8.172-.256.541-.256 1.306-.256 1.895 0 2.916 1.562 5.831 4.079 7.584 3.107 2.134 6.61 1.943 9.924-.193 4.285 1.371 10.306 1.164 14.592-1.943 2.532 2.725 4.475 4.668 5.639 5.639 2.723 2.725 6.8 4.668 8.76 5.448-1.943-.78-5.448-1.561-8.76-1.163-7.201.972-12.06-.382-15.166-.589-5.065-.59-10.306.383-13.03.383s-6.61 1.369-8.554 1.56c-2.135.383-1.943 1.752.971 2.534 2.916.78 8.173 1.162 9.526 1.943 4.668 1.943 12.457 3.696 17.889 3.313 3.887-.382 7.773 1.561 8.762 1.943 1.943.589 6.61 1.943 8.553 1.943 0-.191 0 2.725.191 4.079-.78.191-1.353.589-2.134.78-2.134-1.354-11.676-5.257-23.336-.382-2.534-.781-7.582-3.696-14.783-1.37-8.761 2.915-7.391 10.896-4.477 14.591 3.888 5.05 11.087 3.887 13.223 1.562 4.666 3.105 9.525 2.134 13.03 0 2.342 1.369 13.619 3.503 22.173 0 1.163.78 5.831 3.312 11.868.191 3.503 2.134 9.334 2.134 12.249-.384.972.973 4.285 2.136 11.087 2.136 8.171 0 10.116-1.371 11.278-2.342 1.752.78 6.42 3.313 12.059.78 3.106 1.944 9.334 1.753 12.647-.381 6.037 2.723 17.124 1.56 19.832-.383 5.066-3.505 2.533-10.498-2.915-13.811-10.704-5.448-20.819-1.163-23.336.191-3.107-2.134-9.733-3.505-16.726-2.134.191-.781 0-1.752 0-2.725v-.382c1.37-.381 3.314-1.943 7.2-2.134 5.448-.383 18.095-.191 24.308-3.504 3.696-1.944 16.152-4.285 17.888-5.258 1.578-1.178 1.18-1.958.208-2.548Zm-46.099-7.39c-4.477 5.446-6.802 7.199-7.583 7.199-.972-1.753-2.724-3.887-4.078-5.065 1.561-1.753 8.762-5.066 12.059-7.582.589-.384 1.943-1.164 2.532-1.562.781.971 1.944 1.943 3.107 2.723-2.916 1.769-4.477 2.74-6.037 4.287ZM36.956 37.769c3.887.589 8.363-.382 11.469-3.314 4.078 6.42 4.078 12.059 7.981 16.153-4.859-4.668-9.144-4.668-16.152-8.364-1.163-.589-2.916-1.752-3.505-2.134 0-.589.191-1.163.191-1.943.016-.017.016-.207.016-.398Zm29.564 7.184c.193.19-1.943-2.915-2.134-3.313-.78-1.163-1.752-2.135-2.723-3.505-1.753-1.943-3.107-3.695-4.285-4.859 2.723-.589 6.037-2.325 9.335-5.448.381.191.78.384 1.161.782-.19 1.162-.381 2.134-.589 2.723-.78 4.285-.78 7.582-.971 8.953.015 1.369.206 3.503.206 4.667Zm-6.037-3.887c1.753 2.134 3.107 4.859 3.505 5.448-1.369.589-3.887 1.752-5.448 2.723-2.724-2.723-4.858-11.277-6.228-13.428-.589-.78-.971-1.354-1.163-1.943.972.383 2.341.191 3.313.383.382.206 2.724 2.341 6.021 6.817Zm12.458 6.228c13.221 0 23.734 10.498 23.734 23.735 0 .971 0 2.135-.191 3.505-1.354.382-2.915.971-4.285 1.56-6.802-4.077-16.152-3.695-22.763 0-4.078-3.106-13.03-3.504-19.848-1.943-.191-1.354-.383-2.532-.383-3.106.192-13.253 10.705-23.751 23.736-23.751Zm-3.314-9.144c.191-4.475 1.163-7.391 1.163-7.98.972.383 2.134.781 3.106 1.163.781 1.753 2.326 9.144 1.753 13.62-1.943-.191-4.285-.191-5.831 0-.382-.765-.382-4.476-.191-6.803Zm21.01.591c-1.369 2.914-.589 6.61-4.077 9.924-.382-.383-3.887-1.944-5.257-2.533.589-4.668 4.859-10.307 7.582-12.648.781.971 2.136 1.943 3.107 2.532-.191.383-.765 1.354-1.355 2.725Zm3.696-.972c.191-.191.191-.382.383-.78 2.533.78 5.448.971 8.172.78.191.972.78 1.943 1.163 2.915-1.371.589-5.448 3.504-11.47 6.801-1.56.781-2.533 1.752-3.105 2.342.589-.971 1.56-2.135 1.943-3.313.971-2.916.78-5.05 2.914-8.745Zm-14.59 3.488c-.591 1.561-.973 2.532-1.163 3.505.589-3.505-.382-8.761-1.562-13.221 3.107 0 6.228-.782 9.335-2.533.191.78.589 1.354.972 1.943-1.737 1.561-6.022 6.038-7.582 10.306Zm-48.618 3.696c-3.503 2.915-9.334 3.106-13.03 1.752-.382-.191-.971-.191-1.353.191-2.341 1.752-5.066 1.943-7.2.383-2.134-1.562-3.314-4.079-2.725-6.611.782-3.314 4.859-5.639 11.087-6.228.589 0 1.163-.59 1.354-1.164 1.164-5.638 4.859-6.419 8.364-7.2l1.56-.382c.781-.191 1.163-.78.972-1.561-.191-.971.78-4.667 3.696-7.008 3.505-2.725 8.761-2.725 15.164-.191.365.191.799.191 1.164 0 .381-.193.589-.383.78-.782 1.561-4.666 4.858-7.98 8.952-9.143 4.285-1.37 8.952-.382 13.031 2.533.589.382 1.163.382 1.752 0 3.887-2.533 8.553-3.313 12.647-2.135 4.668 1.163 8.555 4.668 11.47 10.116.382.589 1.162.971 1.752.78 4.476-1.562 7.981-1.562 10.306-.191 2.342 1.369 2.916 3.696 3.314 5.639 0 .382.382.78.589.971.382.192.78.192 1.163.192 4.667-1.561 9.335-1.354 12.456.589 2.135 1.354 3.314 3.107 3.696 5.448.191.59.589 1.162 1.354 1.162 4.078.192 7.008 2.136 7.981 4.859.78 2.533 0 5.639-2.135 7.391-3.106 2.533-7.98 2.342-13.222-.381a1.653 1.653 0 0 0-1.353 0c-4.286 2.134-8.172 2.341-11.868.381-4.285-2.134-6.801-6.611-7.008-8.76a1.063 1.063 0 0 0-.589-.973c-.384-.19-.782-.381-1.164-.19-2.915.381-12.839 1.354-14.973-8.172-.191-.383-.383-.781-.781-.972-.382-.191-.971.191-1.37.382-6.419 4.286-12.839 3.888-18.86-.971-.589-.383-1.354-.589-1.943 0-7.01 7.008-12.648 6.61-15.372 5.448-.59-.191-1.37 0-1.752.589-2.725 4.285-8.555 5.05-12.458 3.886-.381-.19-.971-.19-1.369.191-.383.384-.589.782-.589 1.371 0 3.52-.972 6.626-3.49 8.761Zm3.298 1.179c.59-.781 1.37-2.343 1.752-3.505.383.191.591.382.781.59.191 0 2.342 1.561 3.696 2.325 6.037 2.915 9.733 3.504 13.81 6.802-1.561 1.561-3.106 3.505-3.886 5.257-8.57-2.533-15.181-10.116-16.153-11.469ZM38.9 65.39c-.782-.383-5.83-2.135-8.762-1.943-6.037.382-13.619-1.354-17.315-2.915-.971-.382-9.144-1.164-1.163-1.164 2.724 0 5.831-.78 11.279 0 3.105.384 8.553.973 16.726.384 4.077-.384 7.008.971 8.553 2.532-.382 1.163-.971 4.078-.971 5.065-2.31-.015-6.213-1.195-8.347-1.959ZM18.669 87.166c-3.696-2.534-6.037-7.391-8.554-6.611-.971.382-1.162 2.341.192 2.341.971 0 2.723 2.724 3.886 3.887-.191 1.371-3.886 2.916-7.774.589a6.44 6.44 0 0 1-2.134-8.76c1.354-2.327 4.859-3.505 9.334-3.314 8.364.191 10.896 9.717 12.84 11.676 0 .781-4.683 2.534-7.79.192Zm12.25-.192c-3.106-1.369-5.639-8.761-6.611-9.733-.382-.382 5.639-2.532 11.676-1.943 10.498.972 10.498 7.391 13.03 10.498.973 1.37-8.554 3.903-18.095 1.178Zm34.041.781c-.972-.589-3.886-4.285-5.066-5.639-.971-1.354-2.914-2.533-3.887-1.354-.589.78 0 1.56.973 1.944.971.589 3.503 3.695 3.695 4.475-.192.973-4.859 2.725-7.583-.589-1.353-1.752-4.078-6.802-5.83-8.953 6.037-2.134 13.03-2.914 18.096-.589 4.858 2.342 5.639 7.391 7.583 9.924.381 1.752-5.067 2.725-7.981.781Zm13.03-.191c-3.106-1.354-5.639-8.761-6.611-9.733-.382-.383 5.639-2.533 11.676-1.944 10.498.972 10.498 7.391 13.03 10.498.973 1.179-8.362 3.903-18.095 1.179Zm52.136-12.059c10.498.972 12.84 7.773 11.867 9.924-.971 1.943-7.199 4.477-16.916 1.752-3.106-1.369-5.639-8.76-6.61-9.733-.589-.398 5.431-2.532 11.659-1.943ZM112.43 77.05c4.857 2.342 5.829 7.391 7.582 9.924.382 1.752-5.448 2.135-7.981.781-.972-.589-3.886-4.285-5.049-5.639-.973-1.354-2.725-2.135-3.505-.972-.589.78.191 1.562.972 1.943 1.162.59 3.105 3.505 3.313 4.079-.191.971-4.285 2.325-7.392-.781-1.56-1.562-4.285-7.008-5.448-9.144 6.022-1.943 12.441-2.516 17.508-.191Zm28.003-18.08c-3.106.589-6.802 1.562-11.278 3.107-6.037 2.326-17.698 2.915-22.572 2.915-4.668 0-6.021 1.943-7.773 1.753 0-2.534-1.561-6.038-1.561-6.038 1.354-.781 5.639-2.135 9.525-1.943 5.05.191 14.194.589 19.068-.192 2.341-.382 10.896-.382 12.059-.382.971 0 2.532.191 2.914.191 2.151.191.589.383-.382.589ZM18.287 38.741c-2.533 0-4.668 0-6.42 1.943-1.943 2.134-1.354 3.105-1.752 3.504-.59.59-1.753-.382-1.753-1.37.192-4.858 6.039-6.802 9.527-6.419 1.369.191 1.56 2.342.398 2.342Zm10.497-8.173c-3.696.383-4.858 2.136-5.447 4.285-.192.781-2.343.192-1.945-1.353.973-4.668 6.038-5.64 7.775-5.257.398.175.207 2.325-.383 2.325Zm16.153-9.923c-6.611-2.533-9.924 2.341-10.896 6.42-.191.589-2.342.382-1.943-1.354.78-4.079 4.668-9.925 13.81-7.584.765.192.192 2.899-.971 2.518Zm24.499-6.61c-6.037-4.079-10.896-.782-13.429 2.134-1.163 1.369-2.532-.973-1.943-1.753 2.134-3.504 9.717-8.761 16.344-2.915.78.781 0 3.106-.972 2.534Zm25.088 5.638c-.589.382-.78-.383-1.162-.972-5.448-8.554-15.164-6.228-17.905-2.341-.59.78-1.944-1.354-1.162-2.533 2.341-3.886 14.782-7.391 21.201 3.505.589 1.178-.382 1.958-.972 2.341Zm15.181 5.447c-1.56-4.077-4.476-3.886-7.773-2.723-1.562.589-1.163-2.134-.589-2.325 3.312-1.163 8.951-1.753 10.497 3.886.191 1.545-1.752 2.325-2.135 1.162Zm17.889 8.555c-2.723-5.065-7.2-5.065-10.896-3.696-.78.383-1.56-1.752-.191-2.532 3.505-1.944 10.896-1.753 13.03 4.858.398 1.179-1.163 3.122-1.943 1.37Zm11.294 7.98c-.191.782-2.341.972-2.135 0 .383-4.077-1.751-4.476-4.476-4.476-.971 0-.971-2.134-.191-2.341 3.679-.765 7.964 1.943 6.802 6.817ZM67.874 62.857c0 1.561-1.369 2.724-2.914 2.533-1.561 0-2.724-1.354-2.534-2.915v-.382c-.19-.383-1.56-.781-3.312.382-.972.589-1.943.191-.382-1.163 1.751-1.56 3.313-2.342 4.667-2.533 2.341-.191 5.448.383 7.009.973.589.19 0 3.312-.192 3.105-.589-.191-1.56-.589-2.532-.382l.19.382Zm7.79 8.363c-.382 1.354-5.448 1.944-6.419 0-.383-.78-.78-2.532-.191-2.134 1.162.589 5.065.191 5.83 0 .589-.192.191-1.163.589-.972.765-.015.765 1.736.191 3.106Zm11.868-7.789c-1.163-.973-2.915-1.562-3.504-.973v.193c.19 1.56-.973 2.914-2.534 2.914-1.56.191-2.914-.971-2.914-2.532v-.191c-.973-.384-2.533.191-2.725.191-.191 0-.78-2.916 0-3.314 2.343-.971 10.116-1.353 12.25 2.915.207.606 0 1.195-.573.797Zm-1.944 41.241h56.996v51.738H85.588v-51.738Zm-82.083 0H60.5v51.738H3.505v-51.738ZM60.69 248.816c-14.59-4.285-28.991-10.115-38.118-18.669-3.314-3.107-6.037-6.228-8.363-9.924H28.8v2.134h6.802v-2.134h16.343v-27.622h-3.503v-5.065c-3.505.781-9.335-1.163-11.869-1.163-2.914 0-4.284 1.163-4.284 1.163s-1.562-1.163-4.285-1.163c-2.533 0-8.363 1.944-11.867 1.163v5.065h-3.505v24.707c-5.639-9.733-8.171-21.393-8.761-35.601l-.192-2.136h56.996l.015 69.245Zm-41.83-34.041v-23.734c1.943.382 5.448-.972 9.144-1.163 1.943 0 2.532.971 2.532.971v23.926s-2.134-1.369-6.61-.191c-3.695 1.163-5.066.191-5.066.191Zm15.181 0v-23.926s.589-1.162 2.532-.971c3.505.191 7.01 1.561 9.144 1.163v23.734s-1.354.972-4.859 0c-4.874-1.369-6.817 0-6.817 0Zm48.425 35.013-9.525 2.342-9.335-2.533v-73.131H3.505v-16.918h60.101v-54.861h18.86v54.861h59.91v16.918h-59.91v73.322Zm51.547-32.097v-24.898h-3.504v-5.049c-3.504.78-9.334-1.163-11.868-1.163-2.914 0-4.285 1.163-4.285 1.163s-1.354-1.163-4.284-1.163c-2.533 0-8.363 1.943-11.867 1.163v5.049H94.7v27.621h16.344v2.134h6.801v-2.134h14.782c-2.341 3.505-5.256 6.802-8.553 9.924-9.733 8.762-23.926 14.401-38.327 18.478v-69.245h56.996v2.342c-.941 15.547-3.473 26.634-8.73 35.778Zm-6.419-26.842v23.735s-1.371.971-4.859 0c-4.667-1.37-6.61.191-6.61.191v-23.926s.589-1.162 2.533-.971c3.488 0 6.993 1.354 8.936.971Zm-15.164 0v23.926s-2.136-1.369-6.612-.191c-3.504.971-4.859 0-4.859 0v-23.735c1.945.383 5.449-.971 9.144-1.162 1.928-.016 2.327 1.162 2.327 1.162ZM0 101.167v76.637c0 25.295 6.228 42.786 19.832 55.051 13.429 12.25 33.452 18.478 53.109 23.145 20.23-4.858 39.679-10.704 53.108-23.145 13.619-12.25 19.832-29.756 19.832-55.051v-76.637H0Zm48.425 17.124v-5.065c-3.505.781-9.334-1.163-11.867-1.163-2.915 0-4.285 1.163-4.285 1.163s-1.561-1.163-4.286-1.163c-2.532 0-8.362 1.944-11.867 1.163v5.065h-3.504v27.622H28.96v2.134h6.802v-2.134h16.342v-27.622h-3.679Zm-18.08 21.983s-2.134-1.354-6.61-.192c-3.504.972-4.859 0-4.859 0v-23.734c1.944.382 5.448-.972 9.144-1.163 1.943 0 2.533.972 2.533.972l-.208 24.117Zm15.165-.192s-1.37.972-4.858 0c-4.668-1.353-6.611.192-6.611.192v-23.926s.589-1.163 2.532-.972c3.505.192 7.01 1.561 9.144 1.163l-.207 23.543Zm84.999-21.791v-5.065c-3.504.781-9.334-1.163-11.868-1.163-2.914 0-4.285 1.163-4.285 1.163s-1.354-1.163-4.284-1.163c-2.533 0-8.363 1.944-11.867 1.163v5.065H94.7v27.622h16.344v2.134h6.801v-2.134h16.344v-27.622h-3.68Zm-18.478 21.983s-2.134-1.354-6.611-.192c-3.505.972-4.858 0-4.858 0v-23.734c1.944.382 5.447-.972 9.143-1.163 1.943 0 2.534.972 2.534.972v24.117h-.208Zm15.181-.192s-1.37.972-4.859 0c-4.668-1.353-6.611.192-6.611.192v-23.926s.591-1.163 2.534-.972c3.503.192 6.993 1.561 9.142 1.163v23.528l-.206.015Z"/>
</svg>
