<?xml version="1.0" encoding="UTF-8"?>
<svg id="Layer_1" data-name="Layer 1" xmlns="http://www.w3.org/2000/svg" viewBox="0 0 1001 1001.81">
  <defs>
    <style>
      .cls-1 {
        fill: #2454ff;
      }
    </style>
  </defs>
  <path class="cls-1" d="M640.39,558.04c-4.62,28.36-11.54,39.24-25.72,53.75,22.75,1.65,43.19,1.98,59.19,1.98,43.23,0,74.28-12.35,100.86-37.94,30.65-29.5,47.35-65.88,47.35-103.17,0-52.39-30.54-84.16-87.38-85.41-12.37-.27-24.6-.3-36.7-.22.47-3,.94-6.01,1.42-9.01,1-6.3,2.17-12.05,3.52-17.27,5.46.94,10.88,1.45,16.27,1.45,31.58,0,54.73-15.45,54.73-34.29,0-11.24-8.88-18.46-26.71-18.46-24.08,0-45.08,12.86-60.81,36.76-12.23-4.15-24.79-10.18-37.71-17.39,6.9-10.42,10.48-22.6,10.48-35.52,0-23.42-14.36-51.16-39.63-74.18,42.65.17,72.86,18.87,72.86,43.71,0,9.24-4.56,13.96-13.25,13.96-2.22,0-4.5-.39-6.59-.99l-.66,1.32c6.49,5.05,15.31,7.94,24.25,7.94,14.11,0,23.12-7.59,23.12-19.26,0-29.5-47.92-56.26-100.33-56.26-3.5,0-7.01.11-10.53.3-28.68-21.87-68.13-37.56-114.77-37.56s-79.79,18.7-79.79,46.49c0,.69.02,1.37.06,2.06-1.77-.05-3.55-.08-5.34-.08-71.16,0-115.4,28.05-115.4,68.25,0,3.2.3,6.35.86,9.43-25.95,18.83-45.89,49.71-55.04,89.19-20.46,1.44-35.06,7.36-51.66,21.08-16.58,13.51-23.41,23.94-23.41,34.62,0,8.76,3.41,15.13,11.21,20.44,7.43-6.86,15.8-12.8,25.06-17.81-6.5-4.22-9.89-10.29-9.89-17.15,0-11.13,8.83-17.1,24.73-17.81,6.44-.29,13.09-.44,19.89-.51-6.74,46.19-14.61,100.17-22.19,146.91-4.88,30.07-10.22,40.23-24.07,55.06,13.52.66,29.68,1.32,42.53,1.32,13.85,0,20.48-2.71,28.36-9.89,6.72-6.13,13.19-13.52,19.78-22.09l-1.32-1.32c-4.95,4.62-10.55,7.25-21.76,7.25-4.19,0-8.73-.09-13.34-.21,2.78-25.45,5.91-50.83,9.36-76.15,9.54.57,19.04.86,28.4.75,16.34,33.39,34.1,67.28,56.42,106.28,6.76,11.81,14.06,22.96,21.85,33.46-53.42,13.53-85.53,39.83-85.53,66.45s29.02,47.48,84.41,47.48c5.62,0,11.31-.29,17.05-.82,14.5,34.9,68.19,63.47,131.65,63.47,72.39,0,124.32-30.86,129.46-69.51,54.84-11.5,85.85-39.01,85.85-64.03,0-17.48-15.17-34.29-54.73-34.29-25.22,0-52.13,7.61-80.23,18.45-33.1-21.46-82.38-36.59-146.62-36.59-17.45,0-33.86,1.13-49.08,3.2-1.48-2.36-2.93-4.74-4.34-7.16-25.87-44.4-50.5-93.13-73.6-142.3,30.34-21.62,44.59-44.19,44.59-66.08,0-26.29-19.61-42.27-54.23-42.86-10.78-.18-21.62-.23-32.24-.19.8-4.77,1.59-9.55,2.39-14.32,4.59-27.08,12.82-47.08,24.65-60.8,11.64,24.82,41.49,42.33,75.26,42.33,24.89,0,52.07-9.64,79.93-29.31,33.6,18.56,70.82,37.22,121.2,37.22,30.63,0,53.63-10.05,67.83-25.6,13.12,7.46,25.97,13.8,38.59,18.3-5.26,9.61-9.8,20.63-13.49,33.03-17.03,2.11-31.38,9.25-46.44,22.08-17.02,14.5-22.42,23.26-22.42,35.28,0,6.37,4.38,14.16,10.22,18.46,7.51-6.92,16.32-13.09,26.38-18.46-6.33-4.61-9.89-10.8-9.89-17.15,0-10.57,8.18-16.51,24.07-17.15,4.29-.17,8.47-.3,12.6-.4-1.03,5.34-1.94,10.84-2.7,16.56-4.95,37.26-11.54,84.08-19.12,130.9ZM363.75,752.58c-34.95,0-52.76-16.49-52.76-37.59,0-22.39,19.41-41.68,56.19-52.56,11.51,14.21,24,27.06,37.37,38.46-20.63,10.88-33.55,27.08-33.55,45.42,0,2.04.14,4.07.41,6.1-2.56.1-5.11.17-7.67.17ZM602.8,747.97c0,1.68-.1,3.34-.25,4.99-7.17.54-14.86.88-23.17.94-6.43.05-12.83-.22-19.18-.77.04-.62.06-1.24.06-1.87,0-15.64-7.64-29.8-20.43-40.86,13.06-5.64,25.78-11.02,38-15.77,16.93,16.19,24.97,35.19,24.97,53.34ZM534.55,741.37c0,2.72-.35,5.28-.97,7.71-16.02-3.53-31.6-8.95-46.48-16.14,12.82-5.26,25.52-10.74,37.97-16.14,6.09,6.95,9.48,15.33,9.48,24.57ZM475.42,726.87c-12.6-7.06-24.62-15.42-35.89-25,8.77-3.44,19.1-5.34,30.72-5.34,19.07,0,35.16,4.78,46.47,12.79-13.62,6.06-27.4,12.05-41.3,17.55ZM454.57,734.69c-15.54,5.46-31.2,10.06-46.91,13.23-.02-.64-.06-1.28-.06-1.93,0-12.74,4.71-23.83,13.23-32.26,10.77,7.85,22.02,14.87,33.74,20.96ZM506.85,817.87c-52.22,0-90.15-23.79-97.8-58.64,19.24-4.51,38.78-11.01,58.19-18.41,19.23,8.71,39.58,15.09,60.89,19-5.92,7.05-15.63,11.23-27.87,11.23s-22.05-3.95-28.36-10.88l-1.65,1.32c10.86,16.61,26.47,25.39,46.49,25.39s34.95-9.66,40.92-23.26c7.16.53,14.39.83,21.73.83s14.34-.27,21.14-.74c-9.21,31.53-45.89,54.15-93.68,54.15ZM649.95,676.75c25.06,0,35.61,11.21,35.61,27.04,0,18.21-13.26,35.42-49.32,44.16-1.69-20.61-14.55-42.38-37.96-60.76,19.02-6.38,36.47-10.44,51.67-10.44ZM440.25,653c59.68-.35,101.71,13.62,128.07,33.54-12.5,5.27-25.21,10.96-38.09,16.73-16.37-10.39-38.2-16.64-62.28-16.64-14.18,0-27.56,1.81-39.6,5.06-11.04-10.7-21.22-22.65-30.36-35.77,12.77-1.79,26.86-2.81,42.26-2.93ZM283.96,410.99c27.08.6,40.89,13.41,40.89,37.59s-15,40.23-38.58,40.23c-10.31,0-20.4-.47-30.63-1.36,3.68-25.63,7.65-51.21,11.81-76.78,5.42.09,10.92.21,16.51.33ZM633.47,282.06c0,11.02-3.13,22.07-9.88,31.73-12.22-7.68-24.77-15.95-37.68-24.3,8.13-7.21,12.61-16.81,12.61-27.87,0-14.77-7.27-27.45-19.61-36.32,7.85-2.77,16-4.55,24.84-5.47,18.93,17.69,29.72,40.06,29.72,62.23ZM445.59,233.51c17.55,3.29,34.56,8.95,51.07,16.1-9.45,6.6-18.62,14.01-27.4,22.23l-.65.61c-13.49-10.23-22.33-23.9-23.02-38.94ZM516.74,268.55c2.2-2.1,4.36-4.11,6.48-6.06,11.81,6.3,23.37,13.16,34.7,20.24-7.57,5.3-18.34,8.24-31.95,8.24-9.82,0-19.45-1.48-28.44-4.15l19.21-18.27ZM530.39,256.06c10.99-9.6,21.04-17.09,31.06-22.75,5.97,6.53,9.36,14.64,9.36,23.7,0,7.44-2.06,13.88-5.99,19.11-11.2-6.95-22.67-13.74-34.44-20.05ZM507.84,184.8c34.51,0,63.89,10.46,85.54,26.44-9.83,1.3-19.68,3.34-29.47,6.13-9.39-3.56-20.32-5.53-32.34-5.53-10.02,0-17.9,1.23-25.39,3.63l.33,1.98c3.36-.42,6.99-.66,10.88-.66,11.28,0,21.37,2.22,29.66,6.14-14.19,5.34-28.13,12.28-41.57,20.8-19.04-8.59-38.83-15.44-59.43-19.36,3.66-24.56,26.27-39.57,61.78-39.57ZM411.89,230.3c1.27,0,2.53.04,3.79.06,5.5,17.96,23.01,35.64,45.45,49.11l-25.07,23.5c-24.86-13.52-49.88-25.19-79.56-25.19-10.86,0-21.41,1.68-31.48,4.88,8.3-32.99,40.34-52.36,86.87-52.36ZM363.09,343.06c-22.75,0-40.23-16.16-40.23-42.53,0-2.21.11-4.37.29-6.49,9.44-3.85,20.11-5.71,32.03-5.71,26.04,0,48.99,9.87,72.53,22.4-27.27,24.77-43.97,32.33-64.62,32.33ZM549.72,343.72c-33.56,0-60.84-12.06-86.6-25.86,6.65-5.21,13.32-10.98,20-17.33l7.35-6.99c16.79,6.25,34.49,9.95,51.01,9.95,14.51,0,26.75-2.97,36.14-8.17,13.55,8.83,26.78,17.68,39.72,25.93-13.25,13.3-35.15,22.47-67.61,22.47ZM737.99,320.97c7.8,0,12.86,4.97,12.86,12.2,0,11.32-11.87,19.12-30.99,19.12-4.63,0-9.31-.42-14.03-1.18,7.13-20.45,17.85-30.14,32.17-30.14ZM715.57,410.99c49.13,1.85,73.53,28.34,73.53,78.8,0,58.36-31.32,96.28-82.1,96.94-12.19.53-24.39-.02-36.58-1.63,7.11-58.43,15.03-116.65,23.93-174.68,7,.11,14.02.29,21.22.56ZM451.13,440c-8.49,49.06-15.77,98.13-22.15,147.48,4.92.14,9.77.24,14.24.24,11.21,0,16.82-2.64,21.76-7.25l1.32,1.32c-6.59,8.57-13.06,15.96-19.78,22.09-7.87,7.18-14.51,9.89-28.36,9.89-12.86,0-25.39-.66-37.92-1.32,9.25-10.24,14.27-21.11,18.46-45.5,8.75-50.93,16.3-102.17,22.68-153.69-4.59-.16-9.18-.29-13.78-.29-10.3,0-16.07,1.92-21.43,6.92l-1.65-1.32c5.85-7.23,11.9-14.31,18.67-20.69,8.67-8.18,16-10.97,31.86-10.97,13.44,0,26.96.66,40.81,1.32-14.51,13.85-20.27,26.02-24.73,51.77ZM522.02,436.71c0,10.61,3.91,18.68,15.8,31.47l27.99,30.12c14.2,15.28,19.85,28.02,19.85,44.58,0,35.75-38.59,72.54-78.14,72.54-13.19,0-23.74-3.3-31.65-7.91,10.55-13.19,17.81-26.38,23.41-42.2h1.65c.66,15.5,10.88,24.4,28.03,24.4,17.99,0,29.35-11.1,29.35-28.5,0-10.79-3.88-19.39-15.44-31.83l-23.29-25.07c-18.04-19.41-24.58-32.82-24.58-49.46,0-38.26,41.41-70.29,86.39-69.57,12.56.31,19.12,3.43,19.12,8.9,0,3.63-.99,5.61-5.61,10.88-12.86,15.17-14.84,19.12-15.83,28.69h-1.98c0-13.52-8.24-22.75-26.38-22.75s-28.69,10.02-28.69,25.72ZM456.38,903.09c-21.16-2.36-35.42,8.26-37.2,24.25-1.07,9.6,2.15,17.55,10.31,23.69-11.94,4.28-17.17,11.04-17.95,18.05-1.51,13.53,7.78,26.28,31.9,28.96,23.13,2.58,38.57-8.53,40.39-24.89,1.18-10.58-3.67-19.59-14.7-25.68,10.83-3.28,16.26-9.52,17.13-17.39,1.47-13.16-8.47-24.61-29.87-26.99ZM462.97,975.81c-.74,6.64-6.55,10.73-16.15,9.66-11.32-1.26-16.13-8.4-15.18-16.88.58-5.17,2.22-8.72,5.9-12.67l.71.33,15.16,7.04c8.17,3.77,10.1,7.73,9.57,12.53ZM467.17,931.44c-.49,4.43-2.07,8.49-5.85,12.3l-11.73-5.42c-8.41-3.93-10.5-7.52-9.88-13.06.73-6.52,5.9-10.43,14.02-9.53,8.86.99,14.47,6.47,13.45,15.7ZM907.67,789.94c-9.79,9.79-18.29,20.75-25.34,32.67-1.62-10.03-4.8-14.22-17.04-24.49-9.87-8.28-19.87-16.19-30.12-23.98-11.33-8.63-15.26-10.42-25.7-10.69,9.06-8.65,16.64-18.42,22.76-29.35,2.86,10.05,5.58,13.41,16.75,22.24,10.1,7.99,20.25,15.7,30.72,23.2,13,9.29,17.84,11.33,27.96,10.4ZM981.88,634.51c-3.63,7.91-6.51,15.94-9.65,24.69-4.89,13.24-9.44,27.39-14.1,42.56-6.81-5.21-14.55-9.3-23.63-11.12l.09-2.07c9.39-1.23,14.23-5.55,21.99-28.28-6.13-2.73-12.73-5.23-22.63-8.78-6.57,18.29-7.08,23.77-5.74,31.74-6.95-4.46-14.55-7.46-22.78-9.1,5.85-4.22,9.6-8.79,16.13-26.96-9.75-3.24-16.06-5.11-21.51-6.41-10.75,26.66-10.34,30.62-3.94,37l-1.13,1.7c-7.85-4.53-15.17-9.79-22.16-15.59,4.08-8.8,7.92-17.68,11.19-26.76,4.1-11.42,6.88-21.73,9.04-32.14,4.75,8.02,8.32,11.27,23.42,16.83,13.59,5.01,25.88,8.9,38.17,12.39,14.78,4.26,19.96,3.75,27.25.31ZM651.22,912.39l19.62,8.87-8.87,19.62-19.62-8.87,8.87-19.62ZM841.84,799.51c19.5,20.91,17.17,50.34-6.91,72.8-9.24,8.61-16.27,11.96-22.15,17.45-1.81,1.69-3.09,3.22-4.67,5.88-3.15-10.09-7.45-17.43-16.19-25.52l1.1-1.37c10.18,4.56,21.86,3.48,32.72-6.65,13.03-12.16,13.33-28.35-.6-43.11-16.55-17.57-34.85-17.77-46.98-6.45-1.72,1.6-3.18,3.3-4.3,5.19,2.44,2.98,5.05,5.78,7.76,8.68,8.02,8.6,10.44,9.56,21.74,11.88-12.55,8.15-21.06,16.43-26.42,24.3-2.07-8.57-4.77-13.83-15.41-25.23-3.72-3.98-7.89-7.37-12.61-10.07,6.07-8.37,12.94-17.15,20.91-24.58,24.44-22.79,52.68-23.91,72.01-3.18ZM596.66,896.77c10.12-2.38,20.31-5.03,29.64-9.14-2.92,11.37-3.78,19.08-4.6,34.53-.67,11.22-.79,22.57-1.83,36.55-1.36,20.16-9.15,29.75-27.71,34.12-4.1.96-8.34,1.32-12.45,1.66l-.33-1.95c10.06-2.62,15.61-8.76,18.08-30.71,1.41-12.92,1.74-32.08,1.2-51.66-18.33,5.33-22.84,9.95-26.36,20.95l-1.86-.33c.17-12.25-.8-20.16-3.01-29.56,10.1-.85,19.46-2.16,29.22-4.46ZM528.86,907.27c10.38-.65,20.86-1.56,30.75-4.04-4.78,10.72-6.92,18.17-10.31,33.27-2.54,10.95-4.56,22.12-7.92,35.73-4.72,19.65-14,27.8-33.03,29-4.2.26-8.44-.09-12.56-.45v-1.99c10.36-.9,16.86-6.02,22.97-27.24,3.55-12.5,7.08-31.33,9.83-50.73-18.96,2.19-24.18,5.99-29.49,16.24l-1.78-.63c2.22-12.05,2.59-20.01,1.98-29.65,10.1.86,19.54,1.13,29.55.5ZM795.27,902.03l1.17,2.04c-10.02,5.17-18.11,11.23-24.7,17.15-23.24-6.95-46.56-13.27-70.28-18.8,3.36,6.35,6.76,12.54,10.27,18.66,6.9,12.03,12.37,16.6,24.96,19.66-14.46,5.15-24.09,10.24-32.59,16.82.45-8.68-1.34-15.78-8.22-29.54-9.45-18.98-19.01-37.9-28.89-56.64l1.8-1.6c27.76,8.35,55.91,15.9,84.24,22.5-4.79-8.1-9.79-16.08-15-23.94-9.97-15.4-16.58-18.47-26.87-20.99,12.65-5.82,22.11-11.96,31.76-19.77-1.39,9.78-.29,16.43,8.47,30.96,5.57,9.22,11.52,18.37,17.16,26.69,10.09,15.62,17.3,19.48,26.74,16.78ZM931.96,753.28c-4.8,8.38-8.43,11.72-11.14,16.45-1.85,3.22-2.4,5.19-2.91,8.32-4.52-5.3-12.13-11.95-22.98-17.17l.65-1.63c10.22,1.58,18.51-2.66,24.41-12.98,5.17-9.02,3.77-15.54-1.5-18.55-4.19-2.4-7.87-1.95-14.05,3.36l-10.37,8.89c-12.13,10.46-22.16,11.27-33.11,5-14.39-8.25-18.78-26.74-6.84-47.58,4.8-8.38,8.57-11.22,15.49-23.8,5.66,7.81,12.96,12.99,23.53,17.19l-.6,1.8c-13.1-1.8-21.66,3.43-27.5,13.63-4.99,8.7-3.33,14.78,2.14,17.92,4.08,2.34,8.11,1.79,13.7-2.99l10.73-9.26c12.19-10.56,22.48-11.09,33.33-4.87,13.96,8,18.96,25.42,7.02,46.26ZM18.21,365.01c2.51-9.32,5.17-13.48,6.59-18.74.97-3.59,1-5.63.7-8.79,5.72,3.98,14.77,8.47,26.59,10.75l-.21,1.74c-10.29,1.08-17.22,7.29-20.31,18.76-2.71,10.04.31,15.98,6.17,17.56,4.66,1.26,8.11-.12,12.74-6.83l7.77-11.24c9.07-13.2,18.56-16.54,30.75-13.26,16.02,4.31,24.96,21.08,18.72,44.27-2.51,9.32-5.43,13.03-8.93,26.96-7.46-6.11-15.84-9.27-27.14-10.64l.12-1.89c13.12-1.59,20.07-8.83,23.13-20.18,2.61-9.68-.54-15.14-6.63-16.79-4.54-1.22-8.29.33-12.49,6.38l-8.02,11.69c-9.1,13.32-18.92,16.44-30.99,13.19-15.54-4.18-24.81-19.76-18.56-42.95ZM954.67,473.67l15.23,15.23-15.23,15.23-15.23-15.23,15.23-15.23ZM962.39,396.07c15-3.41,19.29-6.35,24.01-12.88.64,8.67,1.99,17.11,3.46,26.27,2.11,13.96,5.27,29.75,8.88,45.22-8.48-1.27-17.46-.96-26.41,1.85l-.93-1.86c7.16-5.41,9.48-12.05,5.29-36.58-9.63.92-19.2,2.2-28.49,3.69,3.09,20.82,5.4,25.84,10.59,32.4-8.24-.56-16.35.49-24.34,3.03,3.43-8.32,4-14.18.83-33.11-2.43.51-4.75.89-7.17,1.4-11.88,2.53-18.6,5.99-26.68,13.43-.86-13.15-3.16-25.95-7.09-38.73,8.03,4.73,12.73,5.86,28.63,3.43,14.32-2.17,26.95-4.7,39.41-7.58ZM33.44,321.32c7.06-12.83,12.62-25.94,16.2-38.34,3.85,9.03,7.52,13.47,21.23,20.4,11.01,5.39,22.11,10.29,33.43,15.01,3.98,1.71,8.18,3.26,12.42,4.42,9.53-17.55,9.19-23.86,2.42-31.92l1.4-1.54c7.64,5.88,14.58,12.11,20.87,19.13-4.31,8.1-8.62,16.47-12.59,25-4.39,9.43-7.2,17.82-9.67,26.36-4.92-9.66-8.47-13.5-22.33-19.81-11.28-5.11-22.77-10.05-34.36-14.49-15.06-5.77-20.57-6.56-29.03-4.22ZM877.73,353.48c10.91,28.17,36.5,39.76,62.93,29.52,26.55-10.28,37.3-34.62,26.39-62.79-10.91-28.16-36.5-39.76-62.94-29.52-26.55,10.28-37.3,34.62-26.39,62.79ZM953.87,323.86c5.01,12.93-1.98,27.45-25.07,36.39-20.78,8.04-33.19,1.7-37.88-10.42-5.05-13.04,1.98-27.45,25.07-36.39,20.78-8.04,33.15-1.81,37.89,10.42ZM33.68,585.12c-15.15,2.68-19.57,5.42-24.6,11.71-.22-8.69-1.17-17.18-2.19-26.41-1.54-14.9-3.78-30.59-6.38-47.25,8.91,1.75,17.65,1.9,26.24-.43l.83,1.9c-8.01,5.25-10.81,10.3-7.11,37.91,6.7-.25,13.72-.91,24.18-2.07-2.11-21.19-4.23-26.81-9.09-33.49,8.2.96,16.35.3,24.46-1.85-3.76,7.64-4.56,13.84-2.34,33.77,10.19-1.38,16.79-2.49,22.26-3.72-1.94-35.29-4.56-39.85-13.87-44.05l.53-1.93c9.84,1.15,19.15,3.1,27.07,5.95.24,12.18.83,24.2,2.17,36.25,1.34,12.06,3.38,22.54,6.02,32.84-7.79-5.11-12.43-6.46-28.44-4.8-14.41,1.48-27.15,3.39-39.73,5.67ZM972.6,525.83c-13.02-.73-25.98-1.95-38.83-3.91-15.55-2.34-20.06-4.86-26.33-11.76.28,7.67,0,14.01-.87,20.13-1.29,9.07-3.09,14.69-4.32,23.27-4.47,33.12,14.3,55.81,41.02,59.62,25,3.57,46.41-8.89,51.13-41.98,1.54-10.78.92-17.88,3.42-35.4.82-5.76,1.71-10.26,2.69-15.37-6.26,4.48-12.02,6.29-27.9,5.4ZM981.73,564.4c-2.5,17.52-17.59,26-37.44,23.17-19.73-2.81-31.66-14.77-29.49-29.96.68-4.78,2.75-9.61,6.46-13.71,20.54,1.55,41.07,3.98,61.47,7.39-.12,4.36-.37,8.7-.99,13.11ZM833.21,220.58c10.09-7.17,20.14-14.61,29.81-22.39,12.58-10.1,16.03-14.46,18.26-22.95,7.53,12.56,16.06,23.96,24.97,33.3-9.27-1.4-15.02-.56-28.31,8.07-10.61,7.08-21,14.46-31.12,22.24-3.52,2.75-6.15,5.03-8.74,7.59,15.08,24.5,20.44,26.8,30.14,25.78l.52,2.05c-8.8,2.95-17.78,5.43-26.78,7.02-5.92-9.6-12.56-20.22-19.2-29.77-5.94-8.53-11.77-15.19-17.9-21.62,10.83.61,15.92-.52,28.35-9.31ZM886.84,247.84l20.95,4.99-4.99,20.95-20.95-4.99,4.99-20.95ZM568.11,33.17c2.5-15.06,2.01-21.42-2.04-29.41,13.27,4.11,27.67,7.22,39.18,8.1-7.41,4.32-10.38,10.23-13.99,25.14-.85,3.49-1.72,7.1-2.45,10.62,13.41,3,27.01,6.29,40.31,9.77.97-3.46,1.84-7.07,2.69-10.56,3.62-14.92,3.69-21.52-.93-28.76,10.63,4.49,24.86,8.32,38.54,10.74-7.26,5.24-10.61,10.67-15.28,25.21-3.67,11.47-7.19,22.84-10.35,35.33-3.71,14.77-3.4,19.81,1.08,29.69-12.41-5.04-25.16-8.65-39.05-10.74,8.76-5.65,12.14-10.69,16.24-24.98,1.17-4.31,2.43-8.46,3.57-12.64-13.24-3.72-26.35-6.9-39.8-9.78-.93,4.36-1.71,8.63-2.64,12.99-2.9,14.58-2.19,20.61,3,29.64-13.3-4.5-26.29-7.14-39.63-8.33,8.51-6.73,11.09-11.07,14.56-25.89,2.91-12.54,4.99-24.27,6.98-36.14ZM687.64,141.2c26.74,14.05,53.65,5.95,66.83-19.15,13.24-25.21,5.33-50.62-21.41-64.66-26.74-14.04-53.65-5.94-66.83,19.15-13.24,25.21-5.33,50.62,21.41,64.66ZM690.13,85.88c10.36-19.73,23.77-23.17,35.39-17.07,12.27,6.44,16.56,21.98,5.05,43.9-10.36,19.73-23.88,23.11-35.39,17.07-12.39-6.5-16.56-21.98-5.05-43.9ZM247.4,100.23c6.94,11.05,13.43,22.33,19.27,33.94,7.08,14.04,7.64,19.18,5.64,28.28,6.09-4.66,11.42-8.1,16.93-10.93,8.15-4.19,13.77-5.97,21.48-9.94,29.61-15.51,37.26-43.94,24.91-67.94-11.55-22.46-34.1-32.72-63.82-17.43-9.69,4.98-15.12,9.59-30.86,17.68-5.17,2.66-9.36,4.54-14.1,6.7,7.28,2.52,12.09,6.17,20.55,19.64ZM273.58,70.48c15.74-8.1,31.39-.69,40.56,17.14,9.12,17.72,6.26,34.37-7.39,41.39-4.29,2.21-9.43,3.32-14.92,2.66-10.61-17.65-20.51-35.81-29.53-54.42,3.63-2.42,7.31-4.73,11.27-6.77ZM768.72,197.14c22.58,20.07,50.64,18.69,69.48-2.5,18.92-21.28,17.36-47.85-5.22-67.92-22.58-20.07-50.64-18.68-69.48,2.5-18.92,21.28-17.36,47.84,5.22,67.91ZM784.46,144.04c14.81-16.66,28.65-16.77,38.46-8.04,10.36,9.21,10.78,25.32-5.67,43.83-14.8,16.65-28.75,16.68-38.46,8.04-10.46-9.29-10.78-25.32,5.67-43.83ZM131.94,675.16c-3.7-6.72-6.3-12.51-8.27-18.38-2.92-8.69-3.83-14.52-6.6-22.73-10.89-31.6-37.85-43.43-63.43-34.84-23.94,8.05-37.47,28.79-26.82,60.47,3.47,10.32,7.21,16.38,12.85,33.16,1.85,5.51,3.08,9.94,4.5,14.94,3.58-6.82,7.92-11.02,22.5-17.36,11.97-5.2,24.09-9.93,36.45-13.95,14.94-4.89,20.11-4.67,28.81-1.33ZM46.2,672.25c-1.85-3.95-3.58-7.94-5-12.16-5.64-16.78,4.03-31.13,23.04-37.52,18.89-6.35,34.92-1.03,39.81,13.52,1.54,4.58,1.86,9.82.39,15.15-19.05,7.84-38.48,14.9-58.24,21.01ZM103.13,240.61c8.69,10.77,20.03,26.54,30.55,42.78,4.04,6.01,7.28,12.5,9.68,19.3,4.77-9.7,10.81-18.62,17-25.44-6.92-1.21-13.1-3.88-20.16-12.69,5.58-8.49,11.48-16.6,17.69-24.48,11.52,3.95,16.35,9.3,17.37,16.94,6.86-12.16,14.72-21.89,23.73-31.11-5.9-.31-11.7-1.17-17.42-2.58-27-6.66-54.25-14.87-81.15-24.2-4.01,8.87-9.5,18.5-17.11,28.73,6.42.23,12.43,3.54,19.81,12.75ZM144.66,235.95c-4.3,5.9-8.53,11.7-12.63,17.75l-21.36-28.27,33.99,10.52ZM391.27,40.61c-2.64-15.87,7.69-30.76,31.38-34.7,9.52-1.58,14.41-.89,19.78-1.78,3.66-.61,5.54-1.42,8.28-3.01-1.25,6.86-1.58,16.95,1.25,28.65l-1.67.53c-5.25-8.92-13.77-12.65-25.49-10.7-10.26,1.7-14.41,6.91-13.42,12.89.79,4.76,3.48,7.33,11.49,8.76l13.45,2.41c15.77,2.77,22.75,10.03,24.81,22.48,2.72,16.36-8.83,31.46-32.52,35.39-9.52,1.58-14.1.46-28.23,3.06,2.47-9.32,1.86-18.25-1.57-29.1l1.77-.67c6.89,11.28,16.35,14.6,27.95,12.67,9.89-1.64,13.56-6.77,12.52-13-.77-4.64-3.74-7.41-10.98-8.72l-13.96-2.45c-15.89-2.75-22.81-10.39-24.85-22.72ZM470.77,47.93c.56-28.34,20.88-48.01,50.83-47.41,10.27.2,16.42,2.43,22.73,2.55,2.48.05,4.46-.16,7.45-.97-4.77,9.44-6.79,17.7-6.15,29.6l-1.74.21c-4.73-11.61-11.05-17.55-22.68-17.78-14.48-.28-25.09,10.03-25.5,30.83-.47,24.01,12.06,35.4,28.15,35.47,10.03.08,17.03-3.5,22.54-12.93l1.47.65c-1.2,4.44-2.65,8.74-4.21,12.67-2.48,6.64-4.64,9.44-9.02,11.58-4.13,2.02-9.1,3.16-15.79,3.16-29.1-.08-48.69-17.55-48.1-47.63ZM369.77,80.52l-19.05-10.03,10.04-19.05,19.05,10.03-10.04,19.05ZM1.82,459.12c3.41-13.43,5.11-27.19,5.07-41.04,6.52,7.79,11.39,9.76,27.17,12.34,12.72,2.07,25.36,3.76,38.15,5.22,14.14,1.62,18.44,1.15,27.56-3.95-3.36,12.06-4.88,24.34-4.55,36.86-7.6-7.18-11.65-8.67-25.77-10.54-12.76-1.7-25.43-3.15-38.27-4.23-15.92-1.34-21.13-.61-29.35,5.36ZM392.16,960.66c-3.1,14.29-2.95,19.57.17,27.69-11.33-4.63-24.71-8.27-36.47-9.3,6.61-5.69,9.07-10.68,13.61-24.59,3.79-11.55,7.17-23.46,9.89-35.29,2.94-12.67.63-18.52-5.83-23.67l.77-1.97c13.72,2.83,25.82,3.05,37.72,2.08-4.88,9.85-6.87,15.48-11.31,30.95-3.28,11.55-6.11,22.84-8.55,34.1ZM30.3,488.9l15.23-15.23,15.23,15.23-15.23,15.23-15.23-15.23ZM345.08,912.39l8.87,19.62-19.62,8.87-8.87-19.62,19.62-8.87ZM337.89,874.06c-12.45-4.94-24.15-11.16-36.59-19.82,2.51,10.47,2.53,16.36-4.58,29.83-1.26,2.42-2.58,4.94-3.95,7.3-3.79-2.35-7.69-4.75-11.71-6.94.51-10.73.56-21.43-.11-31.13-.57-9.75-3.28-13.79-11.43-18.52-4.2-2.44-9.75-5.3-14.35-8.47-10.52-7.23-19.56-15.84-28.27-25.74-.03,10.42-2.45,15.99-12.27,27.15-2.99,3.31-5.81,6.61-8.8,9.91-10.19-9.23-19.94-18.56-29.53-28.42,3.09-3.05,6.26-6,9.43-9.14,10.72-10.31,16.17-12.97,26.58-13.46-10.96-8.78-20.19-18.29-28.4-28.88-1.07,10.8-3.34,15.31-13.95,26.23-8.99,9.22-17.74,17.29-26.67,25.37-11.33,10.23-16.96,13.25-25.87,14.14,10.62,8.96,21.01,19.41,27.96,28.63-.37-8.57,3.01-14.25,13.62-25.35,2.48-2.59,5.05-5.28,7.62-7.78,9.76,9.68,19.87,19.35,29.97,28.67-2.39,2.68-4.96,5.36-7.44,7.96-10.61,11.09-16.14,14.72-24.72,14.73,9.51,6.53,20.42,16.45,29.84,26.66.5-8.94,3.26-14.7,12.99-26.47,7.68-9.28,15.35-18.38,24.17-27.77,8.86-9.41,13.37-12.61,21.1-14.17,1.48,2.36,2.56,6.14,3.53,13.11,1.97,14.6,2.85,27.14,3.18,39.64-14.1-1.6-22.84,3.34-27.63,11.58-6.96,11.99-4.07,26.98,18.41,40.04,11.03,6.4,19.39,9.26,31.06,16.03,4.07,2.36,8.07,4.83,11.89,7.62-1.61-8.81-.28-15.05,6.4-28.78,5.41-11.03,10.79-21.79,17.21-33.1,7.54-13.23,11.25-16.66,21.32-20.69ZM278.26,917.6c-2.92,5.03-5.37,8.76-7.71,11.56-2.65-1.11-5.45-2.45-8.13-4-11.03-6.4-13.57-15.33-8.35-24.32,5.1-8.78,14.04-9.88,23.14-4.6,3.1,1.8,6.41,4.01,9.35,6.57-2.75,4.99-5.44,9.87-8.3,14.79ZM144.17,783.93c24.06-15.23,29.9-41.19,13.74-66.72-16.15-25.52-43.51-31.94-67.47-16.78-24.06,15.23-29.9,41.19-13.74,66.72,16.15,25.52,43.51,31.94,67.47,16.78ZM88.94,761.01c-7.42-11.72-3.37-27.31,17.55-40.56,18.83-11.92,32.24-8.1,39.19,2.89,7.48,11.82,3.37,27.32-17.55,40.56-18.83,11.92-32.17,8.2-39.19-2.89ZM134.25,161.87l-1.53-1.79c8.86-6.97,15.65-14.45,21.01-21.51,24.13,2.42,48.22,4.23,72.55,5.18-4.5-5.6-9-11.03-13.61-16.38-9.04-10.51-15.28-13.96-28.22-14.58,13.22-7.78,21.72-14.61,28.82-22.68,1.2,8.6,4.3,15.25,13.65,27.45,12.87,16.85,25.83,33.63,39.07,50.15l-1.46,1.91c-28.83-2.95-57.9-5.05-86.96-6.17,6.23,7.05,12.65,13.94,19.25,20.67,12.7,13.24,19.77,15,30.35,15.53-11.32,8.1-19.45,15.92-27.45,25.42-.49-9.87-2.82-16.19-14.17-28.8-7.21-8-14.79-15.86-21.89-22.97-12.86-13.43-20.67-15.86-29.43-11.42Z"/>
</svg>